<?xml version="1.0" encoding="iso-8859-1"?>
<!-- Generator: Adobe Illustrator 19.0.0, SVG Export Plug-In . SVG Version: 6.00 Build 0)  -->
<svg version="1.1" id="Capa_1" xmlns="http://www.w3.org/2000/svg" xmlns:xlink="http://www.w3.org/1999/xlink" x="0px" y="0px"
	 viewBox="0 0 512 512" style="enable-background:new 0 0 512 512;" xml:space="preserve">
<g>
	<g>
		<path d="M423.96,281.892l-8.488-4.9c-0.009-0.005-0.018-0.012-0.027-0.017l-117.916-68.077l-13.072-7.547
			c0.524-2.107,0.807-4.307,0.807-6.574c0-12.407-8.343-22.895-19.711-26.168v-5.727h12.337c4.154,0,7.52-3.367,7.52-7.52
			c0-6.728,5.474-12.201,12.202-12.201c4.154,0,7.52-3.367,7.52-7.52V37.075c0-15.021-12.221-27.242-27.242-27.242h-12.337V7.52
			c0-4.153-3.366-7.52-7.52-7.52c-4.154,0-7.52,3.367-7.52,7.52v9.794c0,0.013-0.002,0.026-0.002,0.04l0.002,138.008v13.247
			c-11.369,3.272-19.713,13.761-19.713,26.168c0,2.266,0.283,4.467,0.807,6.573l-4.957,2.862l-6.168-10.684
			c-2.076-3.597-6.675-4.828-10.272-2.753c-5.825,3.365-13.305,1.361-16.668-4.466c-2.078-3.597-6.678-4.83-10.272-2.752
			l-85.358,49.281c-6.302,3.638-10.81,9.512-12.693,16.542c-1.883,7.029-0.916,14.369,2.722,20.671l6.168,10.683l-2.003,1.157
			c-3.597,2.077-4.829,6.676-2.752,10.272c1.393,2.412,3.92,3.761,6.519,3.761c1.275,0,2.57-0.325,3.753-1.009l8.497-4.905
			c0.007-0.004,0.014-0.006,0.021-0.01l119.516-69.005l11.487-6.632c0.472,0.456,0.958,0.897,1.463,1.319l-4.08,107.816
			c-15.208-2.547-29.993-7.819-43.719-15.745c-10.991-6.345-20.945-14.19-29.584-23.317c-2.858-3.017-7.617-3.147-10.631-0.292
			c-3.017,2.855-3.147,7.614-0.293,10.631c9.639,10.183,20.738,18.932,32.987,26.004c15.883,9.17,33.034,15.146,50.667,17.857
			l-4.872,128.754h-61.749c-4.154,0-7.52,3.367-7.52,7.52v22.049h-61.468c-4.154,0-7.52,3.367-7.52,7.52s3.366,7.52,7.52,7.52
			h68.988h177.4h68.989c4.154,0,7.52-3.367,7.52-7.52s-3.366-7.52-7.52-7.52h-61.469v-22.049c0-4.153-3.366-7.52-7.52-7.52h-61.748
			l-4.874-128.796c4.73-0.734,9.448-1.695,14.14-2.902c4.023-1.034,6.445-5.133,5.41-9.155c-1.034-4.022-5.128-6.448-9.155-5.41
			c-3.642,0.935-7.3,1.703-10.968,2.321l-3.302-87.243c0.602,0.798,1.361,1.478,2.243,1.988c2.823,1.629,4.842,4.261,5.685,7.409
			c0.844,3.148,0.41,6.436-1.219,9.259c-0.998,1.728-1.268,3.78-0.751,5.706c0.516,1.926,1.776,3.57,3.503,4.566l85.359,49.282
			c4.28,2.471,8.956,3.644,13.574,3.644c9.421,0,18.599-4.886,23.638-13.615l6.168-10.685l2.003,1.157
			c1.185,0.684,2.478,1.009,3.753,1.009c2.599,0,5.127-1.35,6.519-3.761C428.789,288.568,427.557,283.969,423.96,281.892z
			 M107.131,273.216l-6.168-10.684c-1.629-2.823-2.063-6.111-1.219-9.259c0.843-3.148,2.862-5.779,5.685-7.409l79.761-46.05
			c6.731,6.49,16.427,9.087,25.499,6.832l2.936,5.086L107.131,273.216z M265.552,24.873h12.336c6.728,0,12.201,5.474,12.201,12.201
			v92.099c-8.986,2.585-16.082,9.68-18.666,18.666h-5.872V24.873z M258.032,182.584c6.723,0,12.191,5.47,12.191,12.193
			s-5.469,12.193-12.191,12.193s-12.193-5.47-12.193-12.193S251.309,182.584,258.032,182.584z M257.829,340.325
			c2.426,0,4.857-0.078,7.288-0.201l4.816,127.268H246.13l4.816-127.25C253.237,340.25,255.531,340.325,257.829,340.325z
			 M251.515,325.114l3.906-103.234c0.859,0.082,1.73,0.128,2.61,0.128s1.751-0.046,2.61-0.128l3.906,103.218
			C260.195,325.324,255.846,325.327,251.515,325.114z M339.211,482.431v14.529h-162.36v-14.529H339.211z M275.91,227.602
			l-0.451-11.919c0.504-0.421,0.99-0.862,1.462-1.318l4.974,2.872L275.91,227.602z M395.243,296.924
			c-3.364,5.827-10.841,7.831-16.667,4.467l-79.753-46.045c1.111-4.433,1.083-9.1-0.132-13.636
			c-1.215-4.536-3.524-8.592-6.704-11.877l2.932-5.076l3.861,2.229l102.631,59.255L395.243,296.924z"/>
	</g>
</g>
<g>
	<g>
		<path d="M361.962,92.951c-2.909-2.968-7.668-3.014-10.634-0.108c-2.967,2.907-3.015,7.667-0.108,10.634
			c24.032,24.529,37.268,56.953,37.268,91.297c0,12.695-1.818,25.237-5.403,37.279c-1.185,3.981,1.081,8.168,5.063,9.353
			c0.716,0.214,1.438,0.315,2.149,0.315c3.241,0,6.233-2.112,7.205-5.376c4-13.436,6.028-27.422,6.028-41.571
			C403.529,156.47,388.767,120.307,361.962,92.951z"/>
	</g>
</g>
<g>
	<g>
		<path d="M341.174,75.361c-3.355-2.339-6.848-4.562-10.383-6.608c-3.596-2.081-8.195-0.85-10.275,2.744
			c-2.08,3.594-0.851,8.194,2.743,10.273c3.17,1.834,6.303,3.827,9.312,5.926c1.311,0.913,2.811,1.353,4.294,1.353
			c2.375,0,4.713-1.123,6.174-3.219C345.416,82.425,344.58,77.737,341.174,75.361z"/>
	</g>
</g>
<g>
	<g>
		<path d="M233.192,58.772c-0.968-4.04-5.026-6.526-9.065-5.562c-13.634,3.265-26.756,8.512-39.002,15.595
			c-33.159,19.177-57.072,50.061-67.331,86.961c-1.115,4.002,1.227,8.148,5.229,9.261c0.674,0.188,1.352,0.277,2.018,0.277
			c3.293,0,6.316-2.18,7.241-5.508c9.199-33.085,30.641-60.775,60.372-77.971c10.987-6.355,22.755-11.06,34.976-13.987
			C231.668,66.869,234.16,62.811,233.192,58.772z"/>
	</g>
</g>
<g>
	<g>
		<path d="M121.096,175.709c-4.12-0.355-7.778,2.719-8.128,6.858c-0.346,4.083-0.521,8.22-0.521,12.297
			c0,4.152,3.367,7.519,7.52,7.519c4.154,0,7.52-3.367,7.52-7.52c0-3.655,0.157-7.365,0.468-11.026
			C128.307,179.699,125.235,176.059,121.096,175.709z"/>
	</g>
</g>
<g>
	<g>
		<path d="M333.555,310.531c-2.075-3.6-6.673-4.834-10.271-2.762c-3.177,1.831-6.47,3.547-9.787,5.1
			c-3.761,1.762-5.381,6.239-3.62,10c1.278,2.73,3.988,4.333,6.815,4.333c1.068,0,2.154-0.23,3.185-0.712
			c3.698-1.733,7.371-3.646,10.915-5.687C334.392,318.728,335.628,314.13,333.555,310.531z"/>
	</g>
</g>
<g>
</g>
<g>
</g>
<g>
</g>
<g>
</g>
<g>
</g>
<g>
</g>
<g>
</g>
<g>
</g>
<g>
</g>
<g>
</g>
<g>
</g>
<g>
</g>
<g>
</g>
<g>
</g>
<g>
</g>
</svg>
